<?xml version="1.0" encoding="UTF-8"?>
<!DOCTYPE svg PUBLIC "-//W3C//DTD SVG 1.1//EN" "http://www.w3.org/Graphics/SVG/1.1/DTD/svg11.dtd">
<svg xmlns="http://www.w3.org/2000/svg" style="background: #ffffff; background-color: light-dark(#ffffff, var(--ge-dark-color, #121212)); color-scheme: light dark;" xmlns:xlink="http://www.w3.org/1999/xlink" version="1.1" width="820px" height="440px" viewBox="0 0 820 440"><defs><style type="text/css">@import url(https://fonts.googleapis.com/css2?family=Architects+Daughter:wght@400;500);&#xa;</style></defs><rect fill="#ffffff" width="100%" height="100%" x="0" y="0" style="fill: light-dark(#ffffff, var(--ge-dark-color, #121212));"/><g><g data-cell-id="0"><g data-cell-id="1"><g data-cell-id="EzMvT3wyW-8OUv9LFBuS-28"><g transform="translate(0.5,0.5)"><rect x="0" y="0" width="820" height="440" fill="#ffffff" stroke="none" pointer-events="all" style="fill: light-dark(rgb(255, 255, 255), rgb(18, 18, 18));"/></g></g><g data-cell-id="EzMvT3wyW-8OUv9LFBuS-26"><g transform="translate(0.5,0.5)"><rect x="30" y="30" width="580" height="380" rx="22.8" ry="22.8" fill="#d4e1f5" stroke="#000000" pointer-events="all" style="fill: light-dark(rgb(212, 225, 245), rgb(35, 46, 64)); stroke: light-dark(rgb(0, 0, 0), rgb(255, 255, 255));"/></g><g><g><switch><foreignObject style="overflow: visible; text-align: left;" pointer-events="none" width="100%" height="100%" requiredFeatures="http://www.w3.org/TR/SVG11/feature#Extensibility"><div xmlns="http://www.w3.org/1999/xhtml" style="display: flex; align-items: unsafe flex-end; justify-content: unsafe center; width: 578px; height: 1px; padding-top: 51px; margin-left: 31px;"><div style="box-sizing: border-box; font-size: 0; text-align: center; color: #000000; "><div style="display: inline-block; font-size: 12px; font-family: Helvetica; color: light-dark(#000000, #ffffff); line-height: 1.2; pointer-events: all; white-space: normal; word-wrap: normal; ">PV CTRL Package</div></div></div></foreignObject><text x="320" y="51" fill="light-dark(#000000, #ffffff)" font-family="Helvetica" font-size="12px" text-anchor="middle">PV CTRL Package</text></switch></g></g></g><g data-cell-id="EzMvT3wyW-8OUv9LFBuS-7"><g transform="translate(0.5,0.5)"><path d="M 370 205 L 443.82 186.54" fill="none" stroke="#000000" stroke-miterlimit="10" pointer-events="stroke" style="stroke: light-dark(rgb(0, 0, 0), rgb(255, 255, 255));"/><path d="M 448.92 185.27 L 442.97 190.36 L 443.82 186.54 L 441.28 183.57 Z" fill="#000000" stroke="#000000" stroke-miterlimit="10" pointer-events="all" style="fill: light-dark(rgb(0, 0, 0), rgb(255, 255, 255)); stroke: light-dark(rgb(0, 0, 0), rgb(255, 255, 255));"/></g></g><g data-cell-id="EzMvT3wyW-8OUv9LFBuS-10"><g transform="translate(0.5,0.5)"><path d="M 310 250 L 310 303.63" fill="none" stroke="#000000" stroke-miterlimit="10" pointer-events="stroke" style="stroke: light-dark(rgb(0, 0, 0), rgb(255, 255, 255));"/><path d="M 310 308.88 L 306.5 301.88 L 310 303.63 L 313.5 301.88 Z" fill="#000000" stroke="#000000" stroke-miterlimit="10" pointer-events="all" style="fill: light-dark(rgb(0, 0, 0), rgb(255, 255, 255)); stroke: light-dark(rgb(0, 0, 0), rgb(255, 255, 255));"/></g></g><g data-cell-id="EzMvT3wyW-8OUv9LFBuS-11"><g transform="translate(0.5,0.5)"><path d="M 310 190 L 310 136.37" fill="none" stroke="#000000" stroke-miterlimit="10" pointer-events="stroke" style="stroke: light-dark(rgb(0, 0, 0), rgb(255, 255, 255));"/><path d="M 310 131.12 L 313.5 138.12 L 310 136.37 L 306.5 138.12 Z" fill="#000000" stroke="#000000" stroke-miterlimit="10" pointer-events="all" style="fill: light-dark(rgb(0, 0, 0), rgb(255, 255, 255)); stroke: light-dark(rgb(0, 0, 0), rgb(255, 255, 255));"/></g></g><g data-cell-id="EzMvT3wyW-8OUv9LFBuS-12"><g transform="translate(0.5,0.5)"><path d="M 250 220 L 186.37 220" fill="none" stroke="#000000" stroke-miterlimit="10" pointer-events="stroke" style="stroke: light-dark(rgb(0, 0, 0), rgb(255, 255, 255));"/><path d="M 181.12 220 L 188.12 216.5 L 186.37 220 L 188.12 223.5 Z" fill="#000000" stroke="#000000" stroke-miterlimit="10" pointer-events="all" style="fill: light-dark(rgb(0, 0, 0), rgb(255, 255, 255)); stroke: light-dark(rgb(0, 0, 0), rgb(255, 255, 255));"/></g></g><g data-cell-id="EzMvT3wyW-8OUv9LFBuS-14"><g transform="translate(0.5,0.5)"><path d="M 370 100 L 510 100 L 510 133.63" fill="none" stroke="#000000" stroke-miterlimit="10" pointer-events="stroke" style="stroke: light-dark(rgb(0, 0, 0), rgb(255, 255, 255));"/><path d="M 510 138.88 L 506.5 131.88 L 510 133.63 L 513.5 131.88 Z" fill="#000000" stroke="#000000" stroke-miterlimit="10" pointer-events="all" style="fill: light-dark(rgb(0, 0, 0), rgb(255, 255, 255)); stroke: light-dark(rgb(0, 0, 0), rgb(255, 255, 255));"/></g></g><g data-cell-id="EzMvT3wyW-8OUv9LFBuS-29"><g transform="translate(0.5,0.5)"><path d="M 250 100 L 120 100 L 120 183.63" fill="none" stroke="#000000" stroke-miterlimit="10" pointer-events="stroke" style="stroke: light-dark(rgb(0, 0, 0), rgb(255, 255, 255));"/><path d="M 120 188.88 L 116.5 181.88 L 120 183.63 L 123.5 181.88 Z" fill="#000000" stroke="#000000" stroke-miterlimit="10" pointer-events="all" style="fill: light-dark(rgb(0, 0, 0), rgb(255, 255, 255)); stroke: light-dark(rgb(0, 0, 0), rgb(255, 255, 255));"/></g></g><g data-cell-id="EzMvT3wyW-8OUv9LFBuS-2"><g transform="translate(0.5,0.5)"><rect x="250" y="70" width="120" height="60" fill="#ffffff" stroke="#000000" pointer-events="all" style="fill: light-dark(#ffffff, var(--ge-dark-color, #121212)); stroke: light-dark(rgb(0, 0, 0), rgb(255, 255, 255));"/><path d="M 262 70 L 262 130 M 358 70 L 358 130" fill="none" stroke="#000000" stroke-miterlimit="10" pointer-events="all" style="stroke: light-dark(rgb(0, 0, 0), rgb(255, 255, 255));"/></g><g><g><switch><foreignObject style="overflow: visible; text-align: left;" pointer-events="none" width="100%" height="100%" requiredFeatures="http://www.w3.org/TR/SVG11/feature#Extensibility"><div xmlns="http://www.w3.org/1999/xhtml" style="display: flex; align-items: unsafe center; justify-content: unsafe center; width: 94px; height: 1px; padding-top: 100px; margin-left: 263px;"><div style="box-sizing: border-box; font-size: 0; text-align: center; color: #000000; "><div style="display: inline-block; font-size: 12px; font-family: Helvetica; color: light-dark(#000000, #ffffff); line-height: 1.2; pointer-events: all; white-space: normal; word-wrap: normal; ">TimeWindow Sensors</div></div></div></foreignObject><text x="310" y="104" fill="light-dark(#000000, #ffffff)" font-family="Helvetica" font-size="12px" text-anchor="middle">TimeWindow Senso...</text></switch></g></g></g><g data-cell-id="EzMvT3wyW-8OUv9LFBuS-3"><g transform="translate(0.5,0.5)"><rect x="60" y="190" width="120" height="60" rx="9" ry="9" fill="#ffffff" stroke="#000000" pointer-events="all" style="fill: light-dark(#ffffff, var(--ge-dark-color, #121212)); stroke: light-dark(rgb(0, 0, 0), rgb(255, 255, 255));"/></g><g><g><switch><foreignObject style="overflow: visible; text-align: left;" pointer-events="none" width="100%" height="100%" requiredFeatures="http://www.w3.org/TR/SVG11/feature#Extensibility"><div xmlns="http://www.w3.org/1999/xhtml" style="display: flex; align-items: unsafe center; justify-content: unsafe center; width: 118px; height: 1px; padding-top: 220px; margin-left: 61px;"><div style="box-sizing: border-box; font-size: 0; text-align: center; color: #000000; "><div style="display: inline-block; font-size: 12px; font-family: Helvetica; color: light-dark(#000000, #ffffff); line-height: 1.2; pointer-events: all; white-space: normal; word-wrap: normal; ">Config Entitties</div></div></div></foreignObject><text x="120" y="224" fill="light-dark(#000000, #ffffff)" font-family="Helvetica" font-size="12px" text-anchor="middle">Config Entitties</text></switch></g></g></g><g data-cell-id="EzMvT3wyW-8OUv9LFBuS-21"><g transform="translate(0.5,0.5)"><path d="M 570 170 L 663.63 170" fill="none" stroke="#000000" stroke-miterlimit="10" pointer-events="stroke" style="stroke: light-dark(rgb(0, 0, 0), rgb(255, 255, 255));"/><path d="M 668.88 170 L 661.88 173.5 L 663.63 170 L 661.88 166.5 Z" fill="#000000" stroke="#000000" stroke-miterlimit="10" pointer-events="all" style="fill: light-dark(rgb(0, 0, 0), rgb(255, 255, 255)); stroke: light-dark(rgb(0, 0, 0), rgb(255, 255, 255));"/></g></g><g data-cell-id="EzMvT3wyW-8OUv9LFBuS-22"><g transform="translate(0.5,0.5)"><path d="M 570 142.73 L 664.2 99.91" fill="none" stroke="#000000" stroke-miterlimit="10" pointer-events="stroke" style="stroke: light-dark(rgb(0, 0, 0), rgb(255, 255, 255));"/><path d="M 668.98 97.74 L 664.06 103.82 L 664.2 99.91 L 661.16 97.45 Z" fill="#000000" stroke="#000000" stroke-miterlimit="10" pointer-events="all" style="fill: light-dark(rgb(0, 0, 0), rgb(255, 255, 255)); stroke: light-dark(rgb(0, 0, 0), rgb(255, 255, 255));"/></g></g><g data-cell-id="EzMvT3wyW-8OUv9LFBuS-4"><g transform="translate(0.5,0.5)"><rect x="450" y="140" width="120" height="60" rx="9" ry="9" fill="#ffffff" stroke="#000000" pointer-events="all" style="fill: light-dark(#ffffff, var(--ge-dark-color, #121212)); stroke: light-dark(rgb(0, 0, 0), rgb(255, 255, 255));"/></g><g><g><switch><foreignObject style="overflow: visible; text-align: left;" pointer-events="none" width="100%" height="100%" requiredFeatures="http://www.w3.org/TR/SVG11/feature#Extensibility"><div xmlns="http://www.w3.org/1999/xhtml" style="display: flex; align-items: unsafe center; justify-content: unsafe center; width: 118px; height: 1px; padding-top: 170px; margin-left: 451px;"><div style="box-sizing: border-box; font-size: 0; text-align: center; color: #000000; "><div style="display: inline-block; font-size: 12px; font-family: Helvetica; color: light-dark(#000000, #ffffff); line-height: 1.2; pointer-events: all; white-space: normal; word-wrap: normal; ">Proxy sensors</div></div></div></foreignObject><text x="510" y="174" fill="light-dark(#000000, #ffffff)" font-family="Helvetica" font-size="12px" text-anchor="middle">Proxy sensors</text></switch></g></g></g><g data-cell-id="EzMvT3wyW-8OUv9LFBuS-5"><g transform="translate(0.5,0.5)"><rect x="250" y="310" width="120" height="60" rx="9" ry="9" fill="#ffffff" stroke="#000000" pointer-events="all" style="fill: light-dark(#ffffff, var(--ge-dark-color, #121212)); stroke: light-dark(rgb(0, 0, 0), rgb(255, 255, 255));"/></g><g><g><switch><foreignObject style="overflow: visible; text-align: left;" pointer-events="none" width="100%" height="100%" requiredFeatures="http://www.w3.org/TR/SVG11/feature#Extensibility"><div xmlns="http://www.w3.org/1999/xhtml" style="display: flex; align-items: unsafe center; justify-content: unsafe center; width: 118px; height: 1px; padding-top: 340px; margin-left: 251px;"><div style="box-sizing: border-box; font-size: 0; text-align: center; color: #000000; "><div style="display: inline-block; font-size: 12px; font-family: Helvetica; color: light-dark(#000000, #ffffff); line-height: 1.2; pointer-events: all; white-space: normal; word-wrap: normal; ">Automation State</div></div></div></foreignObject><text x="310" y="344" fill="light-dark(#000000, #ffffff)" font-family="Helvetica" font-size="12px" text-anchor="middle">Automation State</text></switch></g></g></g><g data-cell-id="EzMvT3wyW-8OUv9LFBuS-18"><g transform="translate(0.5,0.5)"><path d="M 570 270 L 663.63 270" fill="none" stroke="#000000" stroke-miterlimit="10" pointer-events="stroke" style="stroke: light-dark(rgb(0, 0, 0), rgb(255, 255, 255));"/><path d="M 668.88 270 L 661.88 273.5 L 663.63 270 L 661.88 266.5 Z" fill="#000000" stroke="#000000" stroke-miterlimit="10" pointer-events="all" style="fill: light-dark(rgb(0, 0, 0), rgb(255, 255, 255)); stroke: light-dark(rgb(0, 0, 0), rgb(255, 255, 255));"/></g><g data-cell-id="EzMvT3wyW-8OUv9LFBuS-19"><g><g><switch><foreignObject style="overflow: visible; text-align: left;" pointer-events="none" width="100%" height="100%" requiredFeatures="http://www.w3.org/TR/SVG11/feature#Extensibility"><div xmlns="http://www.w3.org/1999/xhtml" style="display: flex; align-items: unsafe center; justify-content: unsafe center; width: 1px; height: 1px; padding-top: 271px; margin-left: 631px;"><div style="box-sizing: border-box; font-size: 0; text-align: center; color: #000000; background-color: #ffffff; "><div style="display: inline-block; font-size: 11px; font-family: Helvetica; color: light-dark(#000000, #ffffff); line-height: 1.2; pointer-events: all; background-color: light-dark(#ffffff, var(--ge-dark-color, #121212)); white-space: nowrap; ">Call</div></div></div></foreignObject><text x="631" y="274" fill="light-dark(#000000, #ffffff)" font-family="Helvetica" font-size="11px" text-anchor="middle">Call</text></switch></g></g></g></g><g data-cell-id="EzMvT3wyW-8OUv9LFBuS-6"><g transform="translate(0.5,0.5)"><path d="M 450 250 C 450 244.48 454.48 240 460 240 L 560 240 C 565.52 240 570 244.48 570 250 L 570 290 C 570 295.52 565.52 300 560 300 L 460 300 C 454.48 300 450 295.52 450 290 L 450 250 Z" fill="#ffffff" stroke="none" pointer-events="all" style="fill: light-dark(#ffffff, var(--ge-dark-color, #121212));"/><path d="M 452 251 L 452 289 C 452 293.97 456.03 298 461 298 L 559 298 C 563.97 298 568 293.97 568 289 L 568 251 C 568 246.03 563.97 242 559 242 L 461 242 C 456.03 242 452 246.03 452 251" fill="transparent" stroke="none" pointer-events="all" style="fill: transparent;"/><path d="M 450 250 C 450 244.48 454.48 240 460 240 L 560 240 C 565.52 240 570 244.48 570 250 L 570 290 C 570 295.52 565.52 300 560 300 L 460 300 C 454.48 300 450 295.52 450 290 L 450 250 Z" fill="none" stroke="#000000" stroke-miterlimit="10" pointer-events="all" style="stroke: light-dark(rgb(0, 0, 0), rgb(255, 255, 255));"/><path d="M 469.47 243.5 C 466.44 246.13 466.44 249.87 469.47 252.5 C 472.5 255.13 472.5 258.87 469.47 261.5 L 456.53 261.5 C 459.56 258.87 459.56 255.13 456.53 252.5 C 453.5 249.87 453.5 246.13 456.53 243.5 Z" fill="transparent" stroke="#000000" stroke-miterlimit="10" pointer-events="all" style="fill: transparent; stroke: light-dark(rgb(0, 0, 0), rgb(255, 255, 255));"/><path d="M 459.12 252.5 L 466.88 252.5 M 457.05 248.9 L 464.81 248.9 M 457.56 245.3 L 465.33 245.3 M 461.19 256.1 L 468.95 256.1 M 460.67 259.7 L 468.44 259.7" fill="none" stroke="#000000" stroke-miterlimit="10" pointer-events="all" style="stroke: light-dark(rgb(0, 0, 0), rgb(255, 255, 255));"/></g><g><g><switch><foreignObject style="overflow: visible; text-align: left;" pointer-events="none" width="100%" height="100%" requiredFeatures="http://www.w3.org/TR/SVG11/feature#Extensibility"><div xmlns="http://www.w3.org/1999/xhtml" style="display: flex; align-items: unsafe center; justify-content: unsafe center; width: 118px; height: 1px; padding-top: 270px; margin-left: 451px;"><div style="box-sizing: border-box; font-size: 0; text-align: center; color: #000000; "><div style="display: inline-block; font-size: 12px; font-family: Helvetica; color: light-dark(#000000, #ffffff); line-height: 1.2; pointer-events: all; white-space: normal; word-wrap: normal; ">Script</div></div></div></foreignObject><text x="510" y="274" fill="light-dark(#000000, #ffffff)" font-family="Helvetica" font-size="12px" text-anchor="middle">Script</text></switch></g></g></g><g data-cell-id="EzMvT3wyW-8OUv9LFBuS-8"><g transform="translate(0.5,0.5)"><path d="M 370 241.43 L 444 267.86" fill="none" stroke="#000000" stroke-miterlimit="10" pointer-events="stroke" style="stroke: light-dark(rgb(0, 0, 0), rgb(255, 255, 255));"/><path d="M 448.95 269.62 L 441.18 270.57 L 444 267.86 L 443.53 263.97 Z" fill="#000000" stroke="#000000" stroke-miterlimit="10" pointer-events="all" style="fill: light-dark(rgb(0, 0, 0), rgb(255, 255, 255)); stroke: light-dark(rgb(0, 0, 0), rgb(255, 255, 255));"/></g><g data-cell-id="EzMvT3wyW-8OUv9LFBuS-9"><g><g><switch><foreignObject style="overflow: visible; text-align: left;" pointer-events="none" width="100%" height="100%" requiredFeatures="http://www.w3.org/TR/SVG11/feature#Extensibility"><div xmlns="http://www.w3.org/1999/xhtml" style="display: flex; align-items: unsafe center; justify-content: unsafe center; width: 1px; height: 1px; padding-top: 256px; margin-left: 414px;"><div style="box-sizing: border-box; font-size: 0; text-align: center; color: #000000; background-color: #ffffff; "><div style="display: inline-block; font-size: 11px; font-family: Helvetica; color: light-dark(#000000, #ffffff); line-height: 1.2; pointer-events: all; background-color: light-dark(#ffffff, var(--ge-dark-color, #121212)); white-space: nowrap; ">Call</div></div></div></foreignObject><text x="414" y="260" fill="light-dark(#000000, #ffffff)" font-family="Helvetica" font-size="11px" text-anchor="middle">Call</text></switch></g></g></g></g><g data-cell-id="EzMvT3wyW-8OUv9LFBuS-15"><g transform="translate(0.5,0.5)"><rect x="670" y="40" width="120" height="60" fill="#ffffff" stroke="#000000" pointer-events="all" style="fill: light-dark(#ffffff, var(--ge-dark-color, #121212)); stroke: light-dark(rgb(0, 0, 0), rgb(255, 255, 255));"/><path d="M 682 40 L 682 100 M 778 40 L 778 100" fill="none" stroke="#000000" stroke-miterlimit="10" pointer-events="all" style="stroke: light-dark(rgb(0, 0, 0), rgb(255, 255, 255));"/></g><g><g><switch><foreignObject style="overflow: visible; text-align: left;" pointer-events="none" width="100%" height="100%" requiredFeatures="http://www.w3.org/TR/SVG11/feature#Extensibility"><div xmlns="http://www.w3.org/1999/xhtml" style="display: flex; align-items: unsafe center; justify-content: unsafe center; width: 94px; height: 1px; padding-top: 70px; margin-left: 683px;"><div style="box-sizing: border-box; font-size: 0; text-align: center; color: #000000; "><div style="display: inline-block; font-size: 12px; font-family: Helvetica; color: light-dark(#000000, #ffffff); line-height: 1.2; pointer-events: all; white-space: normal; word-wrap: normal; ">Solcast<div>Integration</div></div></div></div></foreignObject><text x="730" y="74" fill="light-dark(#000000, #ffffff)" font-family="Helvetica" font-size="12px" text-anchor="middle">Solcast...</text></switch></g></g></g><g data-cell-id="EzMvT3wyW-8OUv9LFBuS-16"><g transform="translate(0.5,0.5)"><rect x="670" y="140" width="120" height="60" fill="#ffffff" stroke="#000000" pointer-events="all" style="fill: light-dark(#ffffff, var(--ge-dark-color, #121212)); stroke: light-dark(rgb(0, 0, 0), rgb(255, 255, 255));"/><path d="M 682 140 L 682 200 M 778 140 L 778 200" fill="none" stroke="#000000" stroke-miterlimit="10" pointer-events="all" style="stroke: light-dark(rgb(0, 0, 0), rgb(255, 255, 255));"/></g><g><g><switch><foreignObject style="overflow: visible; text-align: left;" pointer-events="none" width="100%" height="100%" requiredFeatures="http://www.w3.org/TR/SVG11/feature#Extensibility"><div xmlns="http://www.w3.org/1999/xhtml" style="display: flex; align-items: unsafe center; justify-content: unsafe center; width: 94px; height: 1px; padding-top: 170px; margin-left: 683px;"><div style="box-sizing: border-box; font-size: 0; text-align: center; color: #000000; "><div style="display: inline-block; font-size: 12px; font-family: Helvetica; color: light-dark(#000000, #ffffff); line-height: 1.2; pointer-events: all; white-space: normal; word-wrap: normal; ">Spot Prices<div>Integration</div></div></div></div></foreignObject><text x="730" y="174" fill="light-dark(#000000, #ffffff)" font-family="Helvetica" font-size="12px" text-anchor="middle">Spot Prices...</text></switch></g></g></g><g data-cell-id="EzMvT3wyW-8OUv9LFBuS-20"><g transform="translate(0.5,0.5)"><path d="M 570 197.27 L 664.2 240.09" fill="none" stroke="#000000" stroke-miterlimit="10" pointer-events="stroke" style="stroke: light-dark(rgb(0, 0, 0), rgb(255, 255, 255));"/><path d="M 668.98 242.26 L 661.16 242.55 L 664.2 240.09 L 664.06 236.18 Z" fill="#000000" stroke="#000000" stroke-miterlimit="10" pointer-events="all" style="fill: light-dark(rgb(0, 0, 0), rgb(255, 255, 255)); stroke: light-dark(rgb(0, 0, 0), rgb(255, 255, 255));"/></g></g><g data-cell-id="EzMvT3wyW-8OUv9LFBuS-17"><g transform="translate(0.5,0.5)"><rect x="670" y="240" width="120" height="60" fill="#ffffff" stroke="#000000" pointer-events="all" style="fill: light-dark(#ffffff, var(--ge-dark-color, #121212)); stroke: light-dark(rgb(0, 0, 0), rgb(255, 255, 255));"/><path d="M 682 240 L 682 300 M 778 240 L 778 300" fill="none" stroke="#000000" stroke-miterlimit="10" pointer-events="all" style="stroke: light-dark(rgb(0, 0, 0), rgb(255, 255, 255));"/></g><g><g><switch><foreignObject style="overflow: visible; text-align: left;" pointer-events="none" width="100%" height="100%" requiredFeatures="http://www.w3.org/TR/SVG11/feature#Extensibility"><div xmlns="http://www.w3.org/1999/xhtml" style="display: flex; align-items: unsafe center; justify-content: unsafe center; width: 94px; height: 1px; padding-top: 270px; margin-left: 683px;"><div style="box-sizing: border-box; font-size: 0; text-align: center; color: #000000; "><div style="display: inline-block; font-size: 12px; font-family: Helvetica; color: light-dark(#000000, #ffffff); line-height: 1.2; pointer-events: all; white-space: normal; word-wrap: normal; ">PV Inverter<div>Integration</div></div></div></div></foreignObject><text x="730" y="274" fill="light-dark(#000000, #ffffff)" font-family="Helvetica" font-size="12px" text-anchor="middle">PV Inverter...</text></switch></g></g></g><g data-cell-id="EzMvT3wyW-8OUv9LFBuS-25"><g transform="translate(0.5,0.5)"/><g data-cell-id="EzMvT3wyW-8OUv9LFBuS-24"><g transform="translate(0.5,0.5)"><rect x="250" y="190" width="120" height="60" rx="9" ry="9" fill="#ffffff" stroke="#000000" pointer-events="all" style="fill: light-dark(#ffffff, var(--ge-dark-color, #121212)); stroke: light-dark(rgb(0, 0, 0), rgb(255, 255, 255));"/></g><g><g><switch><foreignObject style="overflow: visible; text-align: left;" pointer-events="none" width="100%" height="100%" requiredFeatures="http://www.w3.org/TR/SVG11/feature#Extensibility"><div xmlns="http://www.w3.org/1999/xhtml" style="display: flex; align-items: unsafe center; justify-content: unsafe center; width: 118px; height: 1px; padding-top: 220px; margin-left: 251px;"><div style="box-sizing: border-box; font-size: 0; text-align: center; color: #000000; "><div style="display: inline-block; font-size: 12px; font-family: Helvetica; color: light-dark(#000000, #ffffff); line-height: 1.2; pointer-events: all; white-space: normal; word-wrap: normal; ">Automation</div></div></div></foreignObject><text x="310" y="224" fill="light-dark(#000000, #ffffff)" font-family="Helvetica" font-size="12px" text-anchor="middle">Automation</text></switch></g></g></g><g data-cell-id="EzMvT3wyW-8OUv9LFBuS-23"><g transform="translate(0.5,0.5)"><path d="M 250 190 L 277 190 L 277 217 L 250 217 Z" fill="none" stroke="none" pointer-events="all"/><path d="M 269.49 199.42 L 270.37 199.87 L 268.91 202.73 C 268.82 202.91 268.65 203 268.47 203 C 268.4 203 268.33 202.99 268.27 202.96 L 265.22 201.6 L 265.62 200.7 L 267.53 201.55 C 266.79 200.06 265.25 199.05 263.53 199.05 C 261.43 199.05 259.59 200.55 259.17 202.61 L 258.21 202.41 C 258.72 199.9 260.96 198.07 263.53 198.07 C 265.72 198.07 267.66 199.4 268.51 201.35 Z M 267.89 204.39 L 268.85 204.59 C 268.34 207.1 266.1 208.93 263.53 208.93 C 261.51 208.93 259.71 207.83 258.78 206.13 L 258.41 207.88 L 257.45 207.68 L 258.11 204.53 C 258.16 204.27 258.41 204.11 258.67 204.15 L 261.96 204.66 L 261.81 205.63 L 259.44 205.26 C 260.13 206.87 261.72 207.95 263.53 207.95 C 265.63 207.95 267.47 206.45 267.89 204.39 Z M 273.32 205.03 L 272.13 204.96 C 271.9 204.95 271.67 205.11 271.62 205.34 C 271.41 206.26 271.05 207.14 270.54 207.94 C 270.42 208.14 270.45 208.41 270.63 208.57 L 271.52 209.36 L 269.36 211.52 L 268.57 210.64 C 268.41 210.46 268.14 210.42 267.94 210.55 C 267.14 211.05 266.27 211.41 265.34 211.62 C 265.11 211.68 264.95 211.89 264.96 212.13 L 265.03 213.32 L 261.97 213.32 L 262.04 212.13 C 262.05 211.89 261.89 211.68 261.66 211.62 C 260.74 211.41 259.86 211.05 259.06 210.55 C 258.86 210.42 258.59 210.45 258.43 210.63 L 257.64 211.52 L 255.48 209.36 L 256.37 208.57 C 256.54 208.41 256.58 208.14 256.45 207.94 C 255.95 207.14 255.59 206.27 255.38 205.34 C 255.33 205.11 255.1 204.95 254.87 204.96 L 253.68 205.03 L 253.68 201.97 L 254.88 202.04 C 255.11 202.05 255.33 201.89 255.38 201.66 C 255.59 200.74 255.95 199.87 256.46 199.07 C 256.59 198.86 256.55 198.6 256.37 198.44 L 255.48 197.64 L 257.64 195.48 L 258.44 196.37 C 258.6 196.55 258.86 196.59 259.06 196.46 C 259.86 195.95 260.74 195.59 261.66 195.39 C 261.89 195.33 262.05 195.12 262.04 194.88 L 261.97 193.68 L 265.03 193.68 L 264.96 194.88 C 264.95 195.12 265.11 195.33 265.34 195.39 C 266.26 195.6 267.13 195.96 267.93 196.46 C 268.14 196.59 268.4 196.55 268.56 196.37 L 269.36 195.48 L 271.52 197.64 L 270.63 198.43 C 270.45 198.59 270.41 198.86 270.54 199.06 C 271.05 199.86 271.41 200.74 271.62 201.66 C 271.67 201.89 271.9 202.05 272.13 202.04 L 273.32 201.97 Z M 274.15 201.09 C 274.05 201 273.91 200.95 273.78 200.96 L 272.48 201.03 C 272.27 200.29 271.97 199.57 271.59 198.9 L 272.57 198.03 C 272.67 197.94 272.73 197.81 272.73 197.67 C 272.73 197.54 272.68 197.41 272.59 197.31 L 269.69 194.41 C 269.59 194.32 269.46 194.27 269.33 194.27 C 269.19 194.27 269.06 194.33 268.97 194.43 L 268.1 195.41 C 267.43 195.03 266.71 194.73 265.96 194.53 L 266.04 193.22 C 266.05 193.08 266 192.95 265.91 192.85 C 265.81 192.76 265.68 192.7 265.55 192.7 L 261.45 192.7 C 261.32 192.7 261.19 192.76 261.09 192.85 C 261 192.95 260.95 193.08 260.96 193.22 L 261.04 194.53 C 260.29 194.73 259.57 195.03 258.9 195.41 L 258.03 194.43 C 257.94 194.33 257.81 194.27 257.67 194.27 C 257.53 194.28 257.41 194.32 257.31 194.41 L 254.41 197.31 C 254.32 197.41 254.27 197.54 254.27 197.67 C 254.27 197.81 254.33 197.94 254.43 198.03 L 255.41 198.9 C 255.03 199.57 254.73 200.29 254.53 201.04 L 253.22 200.96 C 253.09 200.95 252.95 201 252.85 201.09 C 252.76 201.19 252.7 201.32 252.7 201.45 L 252.7 205.55 C 252.7 205.68 252.76 205.81 252.85 205.91 C 252.95 206 253.09 206.05 253.22 206.04 L 254.52 205.97 C 254.73 206.71 255.02 207.43 255.41 208.11 L 254.43 208.97 C 254.33 209.06 254.27 209.19 254.27 209.33 C 254.27 209.46 254.32 209.59 254.41 209.69 L 257.31 212.59 C 257.41 212.68 257.53 212.73 257.67 212.73 C 257.81 212.73 257.94 212.67 258.03 212.57 L 258.89 211.59 C 259.57 211.98 260.29 212.27 261.03 212.48 L 260.96 213.78 C 260.95 213.92 261 214.05 261.09 214.15 C 261.19 214.24 261.32 214.3 261.45 214.3 L 265.55 214.3 C 265.68 214.3 265.81 214.24 265.91 214.15 C 266 214.05 266.05 213.92 266.04 213.78 L 265.97 212.48 C 266.71 212.28 267.43 211.98 268.11 211.59 L 268.97 212.57 C 269.06 212.67 269.19 212.73 269.33 212.73 C 269.46 212.73 269.59 212.68 269.69 212.59 L 272.59 209.69 C 272.68 209.59 272.73 209.46 272.73 209.33 C 272.73 209.19 272.67 209.06 272.57 208.97 L 271.59 208.1 C 271.98 207.43 272.27 206.71 272.48 205.97 L 273.78 206.04 C 273.91 206.05 274.05 206 274.15 205.91 C 274.24 205.81 274.3 205.68 274.3 205.55 L 274.3 201.45 C 274.3 201.32 274.24 201.19 274.15 201.09 Z" fill="#232f3e" stroke="none" pointer-events="all" style="fill: light-dark(rgb(35, 47, 62), rgb(189, 199, 212));"/></g></g></g></g></g></g></svg>